<svg width="22" height="21" viewBox="0 0 22 21" fill="none" xmlns="http://www.w3.org/2000/svg">
<path d="M11.0049 2.28161C11.1136 2.16544 11.2128 2.05436 11.3159 1.94837C11.9665 1.26263 12.7499 0.735152 13.6119 0.402532C13.9388 0.279204 14.2737 0.180872 14.6139 0.108289C15.4798 -0.0658343 16.3717 -0.0295948 17.2225 0.214284C18.1788 0.472404 19.0641 0.966317 19.8064 1.65582C20.5862 2.37016 21.1901 3.27535 21.5657 4.29298C21.7727 4.84757 21.9073 5.42957 21.9655 6.02282C22.0525 6.99324 21.9745 7.97233 21.7352 8.91352C21.5381 9.71335 21.2522 10.4856 20.8836 11.214C20.446 12.0777 19.9321 12.8954 19.3489 13.6562C18.6251 14.6041 17.8334 15.4914 16.981 16.3103C16.1231 17.1516 15.2175 17.9366 14.2692 18.6608C13.3432 19.3629 12.3947 20.032 11.4551 20.7146C11.3327 20.7994 11.2048 20.8842 11.0808 20.969C11.0585 20.989 11.0301 21 11.0009 21C10.9716 21 10.9433 20.989 10.9209 20.969C9.63337 20.0981 8.36905 19.1925 7.1623 18.2012C6.21755 17.4341 5.31407 16.6114 4.45611 15.7371C3.59057 14.8623 2.80127 13.9064 2.0978 12.8811C1.53572 12.063 1.06376 11.1793 0.691128 10.2474C0.410984 9.54193 0.211506 8.80347 0.096952 8.04775C-0.0589895 6.98271 -0.0389974 5.92785 0.246496 4.88486C0.523315 3.87259 1.01907 2.94277 1.69433 2.16935C2.36958 1.39593 3.20572 0.800242 4.13623 0.429667C4.72154 0.185993 5.34155 0.0492323 5.96995 0.0251903C6.33561 0.00706214 6.70203 0.0169788 7.06634 0.0548669C7.56949 0.118535 8.06258 0.251959 8.53299 0.451715C9.34787 0.804169 10.0896 1.32274 10.7162 1.97805C10.7633 2.02638 10.8089 2.07556 10.8553 2.12389L11.0049 2.28161ZM11.0049 4.70085C10.8609 4.48547 10.7266 4.29043 10.5978 4.09116C10.224 3.49014 9.75867 2.95915 9.22073 2.51989C8.54633 1.96695 7.74644 1.61218 6.9016 1.49131C6.15081 1.39114 5.38831 1.48392 4.67843 1.76181C3.87794 2.06336 3.16525 2.58061 2.61041 3.26271C2.16754 3.79785 1.83108 4.42226 1.62118 5.09854C1.40562 5.795 1.32643 6.53079 1.38847 7.26084C1.46844 8.3191 1.77392 9.30698 2.21296 10.2533C2.51694 10.9134 2.88008 11.5409 3.29735 12.1273C3.66255 12.6361 4.04187 13.1352 4.43532 13.6248C4.69757 13.942 4.97517 14.2446 5.26701 14.5313C5.80121 15.0672 6.33861 15.5988 6.8888 16.1144C7.22068 16.4248 7.57894 16.7029 7.92841 16.9929C8.12514 17.1566 8.32107 17.3219 8.52579 17.4745C9.3071 18.0554 10.0924 18.6295 10.8721 19.212C10.9085 19.2472 10.956 19.2668 11.0053 19.2668C11.0545 19.2668 11.102 19.2472 11.1384 19.212C11.6062 18.8677 12.0805 18.5336 12.5475 18.1877C13.2272 17.684 13.899 17.1701 14.5379 16.6062C14.813 16.3646 15.0905 16.1254 15.36 15.877C15.6647 15.5963 15.9638 15.3088 16.2629 15.0205C16.466 14.8238 16.6707 14.6279 16.8643 14.421C17.0738 14.1946 17.2729 13.9572 17.4736 13.7215C17.6336 13.5341 17.7935 13.3433 17.9479 13.1516C18.5939 12.3697 19.157 11.5149 19.6272 10.6027C20.1606 9.54949 20.5341 8.4429 20.6244 7.23964C20.7059 6.28119 20.5402 5.31728 20.1449 4.451C19.7497 3.58471 19.1398 2.84863 18.3805 2.32147C17.7105 1.84947 16.9418 1.55836 16.1413 1.47351C15.1625 1.36704 14.1774 1.59778 13.332 2.13153C12.5163 2.62843 11.8925 3.33309 11.3695 4.15391C11.2504 4.33622 11.1272 4.50921 11.0033 4.70085H11.0049Z" fill="black"/>
</svg>
