<svg width="23" height="23" viewBox="0 0 23 23" fill="none" xmlns="http://www.w3.org/2000/svg">
<path d="M11.4998 12.9694C14.6654 12.9694 17.2316 10.29 17.2316 6.9847C17.2316 3.67944 14.6654 1 11.4998 1C8.33427 1 5.76807 3.67944 5.76807 6.9847C5.76807 10.29 8.33427 12.9694 11.4998 12.9694Z" fill="black" stroke="black" stroke-miterlimit="10"/>
<path d="M2.297 18.5474C1.90327 18.7906 1.561 19.1035 1.28828 19.4695C1.11731 19.7135 1.01846 19.9976 1.00235 20.2915C0.986226 20.5854 1.05343 20.878 1.19677 21.138C1.34011 21.3979 1.55419 21.6155 1.81608 21.7673C2.07797 21.9191 2.37782 21.9995 2.68352 21.9999H20.3163C20.7628 21.9999 21.1911 21.8291 21.5069 21.5251C21.8226 21.2211 22 20.8088 22 20.3789C22 19.7799 21.6983 19.4005 21.2213 19.0466C18.5364 17.0498 15.2406 15.7792 11.8336 15.7139C9.87041 15.6924 7.92064 16.0281 6.08677 16.7031C5.16759 17.0349 4.27682 17.4355 3.42262 17.9012C3.05495 18.1008 2.66277 18.3005 2.297 18.5474Z" fill="black" stroke="black" stroke-miterlimit="10"/>
</svg>
