<svg width="136" height="140" viewBox="0 0 136 140" fill="none" xmlns="http://www.w3.org/2000/svg">
<path d="M100.265 135.416L101.466 136.615L102.844 135.624L129.896 116.187L131.861 114.775L130.105 113.111L115.797 99.5474C121.279 92.2779 126.446 83.9272 131.742 74.5293L132.808 72.638L130.836 71.7305L104.874 59.7826L103.218 59.0206L102.306 60.5988C102.071 61.0056 101.837 61.4111 101.604 61.815C98.4495 67.2797 95.4571 72.4644 92.171 76.9723L84.3578 69.5417C97.374 62.1543 105.856 51.0143 105.856 36.8121V36.4554C105.856 26.5967 101.786 17.9218 94.4557 11.7437C87.1477 5.58435 76.72 2 64.0951 2C38.1789 2 21.0634 18.3598 21.0634 38.5953V38.952C21.0634 46.4036 23.025 53.672 27.889 61.2783C19.4122 65.2386 13.0925 70.1785 8.81174 75.9953C4.15563 82.3221 2 89.5678 2 97.4431V97.7997C2 110.065 7.46445 119.666 16.5228 126.132C25.5137 132.55 37.9426 135.822 51.9308 135.822C66.2436 135.822 78.7268 132.268 89.9716 125.145L100.265 135.416ZM70.4467 38.5953C70.4467 42.7183 68.4388 46.8925 63.0402 50.0895C60.177 46.0521 58.8329 42.9093 58.8329 39.6653V39.3086C58.8329 36.8277 59.5414 34.9569 60.5785 33.741C61.5937 32.5509 63.028 31.8573 64.8213 31.8573C66.5987 31.8573 67.9493 32.4727 68.8673 33.4661C69.7981 34.4733 70.4467 36.0485 70.4467 38.2387V38.5953ZM58.1037 103.468C54.817 103.468 52.3129 102.58 50.6689 101.211C49.0612 99.8727 48.121 97.9511 48.121 95.4815V95.1248C48.121 92.3158 49.2282 89.514 52.3028 86.9057L66.6998 101.338C63.6878 102.681 60.7443 103.468 58.1037 103.468Z" fill="white" stroke="#005CFF" stroke-width="4"/>
</svg>
