<svg width="138" height="141" viewBox="0 0 138 141" fill="none" xmlns="http://www.w3.org/2000/svg">
<path d="M137.876 6.19105L131.798 0.00579834H131.398V40.6935L131.533 40.8341L137.606 47.0193H137.904V46.7831L137.876 6.19105ZM131.798 0.568094L137.471 6.35411V46.2771L131.798 40.4967V0.568094Z" fill="black"/>
<path d="M137.876 99.3916L131.798 93.2064H131.398V133.9L131.533 134.04L137.606 140.225H137.904V139.995L137.876 99.3916ZM131.798 93.7687L137.471 99.5547V139.478L131.798 133.697V93.7687Z" fill="black"/>
<path d="M78.4796 52.7941L72.4012 46.6089H72.002V87.3022L72.1369 87.4428L78.2097 93.628H78.5077V93.3919L78.4796 52.7941ZM72.4012 47.1712L78.0747 52.9572V92.8802L72.4012 87.0998V47.1712Z" fill="black"/>
<path d="M131.601 0.213623H0.208984V40.6202H131.601V0.213623Z" fill="#FFDF05"/>
<path d="M0 0V40.862H131.813V0H0ZM0.421721 0.421721H131.397V40.4122H0.421721V0.421721Z" fill="black"/>
<path d="M72.2053 46.811H0.208984V87.2176H72.2053V46.811Z" fill="#FFDF05"/>
<path d="M0 46.6031V87.4257H72.418V46.6031H0ZM72.0019 87.0096H0.421721V47.0473H72.0019V87.0096Z" fill="black"/>
<path d="M131.601 93.4085H0.208984V133.815H131.601V93.4085Z" fill="#FFDF05"/>
<path d="M0 93.1949V134.029H131.813V93.1949H0ZM131.397 133.607H0.421721V93.6167H131.397V133.607Z" fill="black"/>
<path d="M22.712 29.4814V22.1378H15.2897V29.4814H11.2637V11.1956H15.2897V18.4323H22.712V11.1956H26.7324V29.4814H22.712Z" fill="black"/>
<path d="M40.6549 29.7957C35.032 29.7957 30.9609 25.5898 30.9609 20.3885V20.3379C30.9609 15.1367 35.0657 10.8801 40.7055 10.8801C46.3453 10.8801 50.3995 15.0861 50.3995 20.2873V20.3379C50.3995 25.5335 46.3004 29.7957 40.6549 29.7957ZM46.1935 20.3379C46.1935 17.2003 43.8937 14.5913 40.6549 14.5913C37.4161 14.5913 35.1669 17.1497 35.1669 20.2873V20.3379C35.1669 23.4699 37.4667 26.0846 40.7055 26.0846C43.9443 26.0846 46.1935 23.5261 46.1935 20.3885V20.3379Z" fill="black"/>
<path d="M62.257 29.7674C57.3425 29.7674 54.3398 27.0234 54.3398 21.6422V11.1948H58.3659V21.541C58.3659 24.5155 59.8504 26.0394 62.302 26.0394C64.7536 26.0394 66.238 24.5549 66.238 21.6534V11.1948H70.2584V21.5129C70.2753 27.0515 67.1658 29.7674 62.257 29.7674Z" fill="black"/>
<path d="M81.5331 29.7456C78.6746 29.7551 75.9125 28.7123 73.7734 26.8161L76.152 23.9709C77.7995 25.326 79.5257 26.1919 81.6118 26.1919C83.2594 26.1919 84.249 25.534 84.249 24.4657V24.4151C84.249 23.3917 83.6249 22.8744 80.566 22.0872C76.8829 21.1481 74.5044 20.1304 74.5044 16.4979V16.4473C74.5044 13.1242 77.1697 10.9312 80.909 10.9312C83.3752 10.8919 85.7778 11.7153 87.7015 13.2591L85.6098 16.2899C83.9904 15.1653 82.3991 14.4849 80.8527 14.4849C79.3064 14.4849 78.5024 15.1878 78.5024 16.0762V16.1325C78.5024 17.3358 79.2896 17.7237 82.4384 18.5334C86.1496 19.5006 88.2357 20.8332 88.2357 24.0215V24.0721C88.2301 27.7045 85.4805 29.7456 81.5331 29.7456Z" fill="black"/>
<path d="M92.3965 29.4806V11.1948H106.223V14.771H96.3944V18.4821H105.02V22.0639H96.3944V25.9044H106.325V29.4806H92.3965Z" fill="black"/>
<path d="M18.3034 76.4714C12.6804 76.4714 8.60938 72.2655 8.60938 67.0642V67.0136C8.60938 61.8124 12.7085 57.5558 18.354 57.5558C23.9994 57.5558 28.0648 61.7618 28.0648 66.963V67.0136C28.0648 72.2148 23.9432 76.4714 18.3034 76.4714ZM23.8419 67.0136C23.8419 63.876 21.5422 61.267 18.3034 61.267C15.0645 61.267 12.8153 63.8254 12.8153 66.963V67.0136C12.8153 70.1512 15.1151 72.7603 18.354 72.7603C21.5928 72.7603 23.8419 70.2018 23.8419 67.0642V67.0136Z" fill="black"/>
<path d="M36.2978 61.5262V65.4229H45.0246V69.0778H36.2978V76.1571H32.2773V57.8713H46.1998V61.5262H36.2978Z" fill="black"/>
<path d="M20.1089 122.755H11.4102V104.469H19.9008C23.6345 104.469 25.9342 106.324 25.9342 109.198V109.248C25.9543 110.066 25.7386 110.872 25.3128 111.57C24.887 112.268 24.2692 112.828 23.5332 113.184C25.6475 113.994 26.952 115.22 26.952 117.683V117.733C26.9407 121.085 24.2361 122.755 20.1089 122.755ZM21.9363 109.878C21.9363 108.675 20.9973 107.994 19.2992 107.994H15.3294V111.863H19.0349C20.8117 111.863 21.9363 111.301 21.9363 109.929V109.878ZM22.9541 117.188C22.9541 115.956 22.0432 115.197 19.9795 115.197H15.3294V119.223H20.1089C21.8857 119.223 22.9541 118.594 22.9541 117.238V117.188Z" fill="black"/>
<path d="M44.5348 122.754L42.8479 118.655H35.1276L33.4407 122.754H29.3359L37.1743 104.339H40.8855L48.7239 122.754H44.5348ZM38.9962 109.169L36.567 115.085H41.4253L38.9962 109.169Z" fill="black"/>
<path d="M60.9096 122.755H52.2109V104.469H60.6791C64.4127 104.469 66.7125 106.324 66.7125 109.198V109.248C66.7326 110.066 66.5169 110.872 66.0911 111.57C65.6653 112.268 65.0475 112.828 64.3115 113.184C66.4258 113.994 67.7359 115.22 67.7359 117.683V117.733C67.7584 121.085 65.0369 122.755 60.9096 122.755ZM62.7371 109.878C62.7371 108.675 61.7981 107.994 60.0999 107.994H56.1301V111.863H59.8413C61.6181 111.863 62.7371 111.301 62.7371 109.929V109.878ZM63.7605 117.188C63.7605 115.956 62.8439 115.197 60.7803 115.197H56.1301V119.223H60.9096C62.6865 119.223 63.7605 118.594 63.7605 117.238V117.188Z" fill="black"/>
<path d="M85.3355 122.754L83.6487 118.655H75.9284L74.2415 122.754H70.1367L77.9751 104.339H81.6862L89.5246 122.754H85.3355ZM79.7969 109.169L77.3678 115.085H82.2261L79.7969 109.169Z" fill="black"/>
<path d="M99.2577 123.019C96.3988 123.031 93.636 121.988 91.498 120.09L93.8765 117.244C95.5184 118.6 97.2503 119.494 99.3364 119.494C100.984 119.494 101.974 118.841 101.974 117.767V117.717C101.974 116.699 101.344 116.176 98.2906 115.389C94.6075 114.45 92.229 113.432 92.229 109.8V109.749C92.229 106.431 94.8943 104.233 98.6279 104.233C101.094 104.194 103.497 105.017 105.42 106.561L103.334 109.592C101.715 108.467 100.118 107.787 98.5774 107.787C97.0367 107.787 96.2269 108.495 96.2269 109.383V109.434C96.2269 110.637 97.0085 111.025 100.163 111.835C103.874 112.802 105.966 114.135 105.966 117.323V117.334C105.972 120.978 103.199 123.019 99.2577 123.019Z" fill="black"/>
<path d="M0.397464 87.0003L0.00390625 87.4019L6.31717 93.5887L6.71073 93.1871L0.397464 87.0003Z" fill="black"/>
<path d="M0.393558 40.3964L0 40.798L6.31326 46.9847L6.70682 46.5831L0.393558 40.3964Z" fill="black"/>
<path d="M137.6 46.5975H72.2051V47.0192H137.6V46.5975Z" fill="black"/>
<path d="M0.40137 133.587L0.0078125 133.989L6.32108 140.176L6.71464 139.774L0.40137 133.587Z" fill="black"/>
<path d="M137.6 139.792H6.32617V140.214H137.6V139.792Z" fill="black"/>
</svg>
