<svg width="144" height="129" viewBox="0 0 144 129" fill="none" xmlns="http://www.w3.org/2000/svg">
<path d="M71.9755 128.964C59.4607 128.964 46.9459 128.964 34.4311 128.964C30.6434 128.964 29.1931 127.456 29.1901 123.602C29.1901 102.393 29.1901 81.1829 29.1901 59.9704C29.1901 57.3437 29.6715 57.4613 26.6891 57.4583C22.8529 57.4583 19.0168 57.4101 15.1836 57.4583C10.7419 57.5247 10.0364 56.3908 8.91309 52.8956C6.93595 46.8008 5.15864 40.6427 3.27537 34.5178C2.36703 31.5564 1.40118 28.6101 0.468625 25.6547C-0.578984 22.3374 0.135575 19.8675 2.55476 18.7608C4.51676 17.8561 6.52719 17.072 8.51644 16.2336C13.8796 13.9718 19.2398 11.712 24.5969 9.45428C30.595 6.93013 36.6051 4.36678 42.6334 1.8939C44.4298 1.15784 46.275 0.546218 48.156 0.06337C48.7404 -0.0904311 49.5306 0.256374 50.1392 0.551913C54.7324 2.81376 59.6294 4.40335 64.6786 5.27149C68.7606 5.94982 72.9183 6.05135 77.0289 5.57307C82.7483 4.93374 88.2316 3.37461 93.3425 0.624287C94.8806 -0.205032 96.3703 -0.171861 97.9568 0.509689C104.188 3.16351 110.458 5.7329 116.696 8.38069C124.126 11.5351 131.532 14.7378 138.956 17.9254C139.919 18.3386 140.939 18.6733 141.82 19.2191C143.673 20.3681 144.412 22.253 143.776 24.2976C142.026 29.9309 140.182 35.5402 138.423 41.1856C137.154 45.2447 136.001 49.328 134.729 53.4022C133.866 56.1978 132.737 57.4463 129.412 57.4312C124.974 57.4131 120.532 57.4613 116.09 57.404C114.822 57.386 114.331 57.7056 114.334 59.0838C114.376 77.4776 114.385 95.8734 114.358 114.271C114.358 117.688 114.392 121.105 114.386 124.525C114.386 127.54 112.947 128.997 109.968 129C97.3038 129 84.6387 129 71.9725 129L71.9755 128.964ZM44.6196 9.49349C44.2623 9.62919 43.6507 9.83125 43.0603 10.0816C36.8322 12.7444 30.6101 15.4254 24.3789 18.0762C19.4406 20.1721 14.4993 22.268 9.52772 24.2795C8.33175 24.762 8.21064 25.3561 8.56186 26.4689C9.99097 30.9925 11.3353 35.5522 12.7341 40.0909C13.6031 42.9106 14.5508 45.7091 15.3986 48.5348C15.6862 49.4818 16.2373 49.7049 17.185 49.6959C22.1777 49.6416 27.1766 49.6567 32.1694 49.6627C35.3243 49.6627 36.6656 50.9896 36.6777 54.1531C36.6929 57.6694 36.6535 61.1888 36.6535 64.7081C36.6535 82.8024 36.6616 100.897 36.6777 118.991C36.6777 121.162 36.6535 121.165 38.7972 121.165L104.037 121.138C107.064 121.138 107.064 121.138 107.064 118.143C107.064 96.8847 107.064 75.628 107.064 54.3733C107.064 51.056 108.439 49.7049 111.736 49.7019C116.681 49.7019 121.625 49.7019 126.572 49.6356C126.89 49.617 127.201 49.531 127.483 49.3833C127.765 49.2356 128.012 49.0296 128.207 48.7791C128.671 48.0403 128.813 47.0994 129.082 46.2399C130.237 42.5145 131.389 38.7891 132.54 35.0637C133.448 32.0962 134.332 29.1197 135.265 26.1643C135.568 25.2174 135.392 24.7681 134.393 24.3549C130.121 22.6179 125.891 20.7632 121.646 18.9598C114.985 16.1341 108.36 13.2872 101.696 10.5007C98.7047 9.24921 98.741 9.32762 97.6662 12.2529C94.0722 22.0509 86.745 27.3736 76.6777 29.0383C71.6854 29.8716 66.5623 29.4221 61.7931 27.7325C56.6459 25.9231 52.3041 23.028 49.3369 18.4562C47.5717 15.6998 46.2667 12.6509 44.6196 9.49349ZM89.9393 10.6153C84.1572 12.5384 78.1104 13.5558 72.0149 13.631C65.8443 13.6702 59.8826 12.4821 53.9149 10.6696C55.2834 15.7963 61.6599 21.2759 71.6364 21.7071C79.4269 22.0419 89.1642 16.2607 89.9393 10.6153Z" fill="#FFDF05"/>
</svg>
