<svg width="138" height="131" viewBox="0 0 138 131" fill="none" xmlns="http://www.w3.org/2000/svg">
<path fill-rule="evenodd" clip-rule="evenodd" d="M88.3231 6.70493C91.4974 7.72535 93.1534 11.7231 94.7987 15.6949C96.1497 18.9564 97.4935 22.2003 99.6648 23.7635C101.844 25.3324 105.402 25.6034 108.973 25.8753C113.293 26.2042 117.631 26.5345 119.568 29.1656C121.498 31.7873 120.486 35.9134 119.47 40.0503C118.625 43.4974 117.777 46.952 118.628 49.5501C119.435 52.0224 122.099 54.2508 124.796 56.507C128.126 59.2919 131.506 62.1193 131.506 65.5001C131.506 68.8799 128.124 71.7094 124.794 74.4963C122.1 76.7503 119.44 78.9766 118.628 81.4437C117.775 84.0509 118.622 87.5268 119.466 90.9883C120.474 95.1243 121.477 99.2396 119.568 101.828C117.655 104.423 113.351 104.758 109.045 105.094C105.46 105.373 101.873 105.653 99.6648 107.237C97.466 108.814 96.1187 112.074 94.7672 115.344C93.1311 119.304 91.4891 123.277 88.3231 124.295C85.3057 125.261 81.7155 123.078 78.0772 120.867C74.9794 118.984 71.8467 117.08 69.0033 117.08C66.1593 117.08 63.0246 118.985 59.9254 120.868C56.2867 123.079 52.6968 125.261 49.6834 124.295C46.5033 123.274 44.8455 119.271 43.1995 115.297C41.8499 112.038 40.5082 108.798 38.3417 107.237C36.1662 105.668 32.6087 105.397 29.0372 105.125C24.7138 104.795 20.3699 104.464 18.4321 101.828C16.5029 99.2043 17.5152 95.0834 18.5306 90.9504C19.3776 87.5026 20.2267 84.0463 19.3719 81.4437C18.5604 78.9766 15.8999 76.7503 13.2062 74.4963C9.87555 71.7094 6.49412 68.8799 6.49412 65.5001C6.49412 62.1213 9.87335 59.2926 13.2029 56.5055C15.8978 54.2496 18.5601 52.021 19.3719 49.5501C20.2285 46.9448 19.3807 43.4689 18.5361 40.0065C17.5277 35.8721 16.5239 31.7568 18.4321 29.1656C20.3467 26.5657 24.6557 26.232 28.9657 25.8981C32.5486 25.6206 36.1323 25.3431 38.3417 23.7635C40.5444 22.1888 41.891 18.9262 43.2416 15.6537C44.8754 11.6952 46.5151 7.72228 49.6834 6.70493C52.6963 5.73961 56.2834 7.91827 59.9206 10.1273C63.02 12.0097 66.1557 13.9141 69.0033 13.9141C71.8537 13.9141 74.9914 12.0113 78.0929 10.1305C81.7259 7.92732 85.3093 5.75426 88.3231 6.70493ZM13.2026 83.4704C13.1755 83.4266 12.9424 82.9871 12.023 82.0795C11.2109 81.2778 10.2983 80.5136 9.15478 79.5559C8.80838 79.2658 8.44078 78.9579 8.04837 78.6259C6.549 77.3573 4.65521 75.7054 3.14557 73.7924C1.62044 71.8597 0 69.0563 0 65.5001C0 61.9439 1.62045 59.1405 3.14543 57.2079C4.65489 55.2949 6.54854 53.6429 8.0476 52.3741C8.43841 52.0433 8.80463 51.7365 9.14982 51.4473C10.2949 50.4879 11.2087 49.7224 12.0214 48.9195C12.9541 47.9981 13.1808 47.5584 13.2027 47.5245C13.2189 47.4404 13.3042 46.9127 13.1035 45.589C12.9249 44.4103 12.6265 43.1839 12.2509 41.6403C12.1632 41.2797 12.0712 40.9018 11.9756 40.5031C11.5261 38.6287 10.9753 36.2101 10.8756 33.8248C10.7752 31.4251 11.085 28.2056 13.1958 25.3393C15.2976 22.4852 18.2808 21.2123 20.5959 20.5702C22.9095 19.9285 25.3961 19.6955 27.3469 19.5365C27.7798 19.5012 28.19 19.4692 28.5811 19.4387C30.1633 19.3153 31.4314 19.2164 32.6191 19.0223C34.0465 18.789 34.516 18.5295 34.553 18.509C34.5531 18.509 34.5531 18.509 34.5531 18.509C34.5552 18.5078 34.5558 18.5074 34.5552 18.5079M13.2026 83.4704C13.2201 83.5638 13.2997 84.0907 13.1006 85.3896C12.9215 86.5582 12.6244 87.7705 12.2498 89.299C12.1594 89.6679 12.0645 90.0552 11.9656 90.4648C11.5134 92.3386 10.9595 94.7598 10.8616 97.1543C10.7628 99.5717 11.0853 102.784 13.193 105.651C15.2963 108.511 18.2785 109.796 20.6096 110.446C22.9349 111.094 25.4298 111.327 27.3866 111.485C27.8387 111.521 28.2655 111.554 28.6713 111.585C30.2347 111.705 31.4854 111.801 32.6591 111.991C33.9877 112.206 34.463 112.443 34.529 112.476C34.5306 112.477 34.532 112.477 34.5331 112.478C34.5341 112.479 34.5353 112.48 34.5369 112.482C34.589 112.534 34.954 112.903 35.5564 114.067C36.0897 115.098 36.5555 116.221 37.1403 117.631C37.3013 118.019 37.4713 118.429 37.6542 118.865C38.408 120.66 39.4059 122.949 40.7628 124.952C42.1331 126.975 44.3047 129.365 47.691 130.452L47.695 130.454C51.0748 131.536 54.2303 130.813 56.463 129.981C58.6917 129.15 60.8279 127.889 62.4822 126.891C62.7929 126.703 63.0896 126.523 63.3747 126.35C64.7891 125.492 65.9161 124.808 67.0279 124.263C67.6524 123.957 68.1334 123.767 68.499 123.657C68.8393 123.555 68.9935 123.549 69.0033 123.549C69.0137 123.549 69.1678 123.556 69.5069 123.657C69.8721 123.767 70.3528 123.957 70.9769 124.263C72.0878 124.807 73.2136 125.491 74.6267 126.348C74.9124 126.522 75.2098 126.702 75.5213 126.89C77.1755 127.889 79.3116 129.15 81.5412 129.981C83.7754 130.814 86.9301 131.536 90.3094 130.454L90.3135 130.453L90.3175 130.452C93.7053 129.363 95.8732 126.97 97.2396 124.946C98.5911 122.944 99.5839 120.656 100.333 118.866C100.507 118.449 100.67 118.057 100.824 117.684C101.416 116.254 101.885 115.12 102.424 114.082C103.04 112.895 103.411 112.534 103.457 112.49C103.459 112.488 103.46 112.487 103.461 112.486C103.461 112.486 103.461 112.486 103.462 112.485C103.501 112.464 103.97 112.205 105.389 111.972C106.578 111.777 107.849 111.677 109.435 111.553C109.822 111.522 110.228 111.491 110.657 111.455C112.606 111.296 115.092 111.062 117.404 110.421C119.716 109.78 122.699 108.509 124.802 105.658C126.914 102.793 127.225 99.5732 127.125 97.1743C127.026 94.7896 126.476 92.3713 126.027 90.4968C125.931 90.0964 125.839 89.717 125.751 89.355C125.376 87.8131 125.078 86.5869 124.899 85.4077C124.702 84.111 124.779 83.5742 124.798 83.4688C124.83 83.4166 125.068 82.9768 125.977 82.0795C126.789 81.2778 127.702 80.5135 128.845 79.5558C129.192 79.2657 129.559 78.9579 129.952 78.6259C131.451 77.3573 133.345 75.7054 134.854 73.7924C136.38 71.8597 138 69.0563 138 65.5001C138 61.9415 136.378 59.1368 134.851 57.2034C133.34 55.2899 131.445 53.638 129.945 52.3699C129.556 52.0409 129.192 51.7356 128.848 51.4478C127.7 50.4871 126.786 49.7214 125.973 48.9188C125.035 47.9918 124.816 47.556 124.8 47.534C124.786 47.4607 124.697 46.9399 124.902 45.6069C125.081 44.4389 125.378 43.2276 125.751 41.702C125.842 41.3303 125.938 40.94 126.037 40.5271C126.489 38.6519 127.042 36.2302 127.139 33.8357C127.237 31.4193 126.915 28.2056 124.805 25.3397C122.701 22.4823 119.72 21.1997 117.39 20.5511C115.066 19.9042 112.573 19.6716 110.618 19.5143C110.168 19.4781 109.743 19.4455 109.339 19.4145C107.775 19.2946 106.523 19.1987 105.349 19.0088C104.012 18.7927 103.537 18.554 103.474 18.5221C103.472 18.5214 103.471 18.5207 103.47 18.5202C103.469 18.5192 103.468 18.5179 103.466 18.5162C103.415 18.4642 103.049 18.096 102.445 16.9305C101.911 15.8984 101.443 14.7723 100.857 13.3579C100.697 12.973 100.529 12.5668 100.347 12.1352C99.594 10.3406 98.5968 8.05275 97.2415 6.0504C95.8731 4.02861 93.7033 1.63689 90.3175 0.548495L90.3005 0.54305L90.2836 0.537697C86.9117 -0.525925 83.7674 0.198537 81.5394 1.03009C79.3148 1.86036 77.1819 3.11734 75.529 4.11293C75.2241 4.29655 74.9326 4.47308 74.6524 4.6428C73.2327 5.50259 72.102 6.18736 70.9875 6.73196C70.3635 7.03687 69.8821 7.22625 69.5156 7.33575C69.1675 7.43975 69.0114 7.44483 69.0034 7.44507C68.9969 7.44484 68.842 7.43994 68.4949 7.33597C68.1288 7.22632 67.6475 7.03654 67.0231 6.73079C65.9106 6.18602 64.783 5.5021 63.3678 4.64373C63.0837 4.47138 62.7879 4.292 62.4784 4.10531C60.8247 3.1079 58.689 1.84804 56.4607 1.01791C54.2279 0.186106 51.0736 -0.535932 47.695 0.546584L47.691 0.547844C44.3003 1.63661 42.1311 4.03044 40.7642 6.05658C39.4125 8.06007 38.4205 10.3495 37.6722 12.1397C37.499 12.5541 37.3374 12.9451 37.184 13.3161C36.5921 14.748 36.1227 15.8836 35.5845 16.9206C34.9738 18.0974 34.6049 18.4582 34.5577 18.5043M124.802 47.5431C124.802 47.5437 124.802 47.5442 124.802 47.5448L124.802 47.5431Z" fill="#F90000"/>
</svg>
