<svg width="81" height="129" viewBox="0 0 81 129" fill="none" xmlns="http://www.w3.org/2000/svg">
<path d="M40.5553 0C42.1073 3.45993 43.1859 6.40607 44.6918 9.1441C51.0247 20.7726 57.3116 32.4206 63.9273 43.893C69.2409 53.1151 75.3239 61.9536 78.395 72.2618C83.176 88.4493 81.9791 103.622 69.7144 116.551C64.0305 122.505 56.6248 126.575 48.5113 128.205C40.3977 129.835 31.9732 128.945 24.391 125.657C16.7592 122.339 10.3376 116.79 5.98991 109.756C1.64224 102.722 -0.42299 94.5394 0.0720387 86.3096C0.729662 75.6632 4.18219 65.9728 9.44976 56.8352C16.9269 43.8279 24.6475 30.9898 31.9865 17.924C35.1037 12.3504 37.5171 6.40607 40.5553 0ZM40.3844 17.1045C36.9516 23.309 33.6963 29.4614 30.2044 35.4578C26.7124 41.4541 22.839 47.5155 19.2221 53.5899C17.1637 57.0368 15.1777 60.5422 13.3363 64.1062C9.23932 72.0341 6.76008 80.3653 6.92449 89.3793C7.16781 106.256 19.6692 119.79 37.1752 122.028C52.7937 124.031 68.5438 113.365 72.8447 97.834C75.416 88.5469 73.864 79.5654 70.6548 70.7399C70.1369 69.1938 69.4902 67.6928 68.7214 66.2524C59.3042 49.8893 49.8673 33.5522 40.3844 17.1045Z" fill="#2603FD"/>
</svg>
